<?xml version="1.0" encoding="UTF-8"?>
<svg id="Capa_2" data-name="Capa 2" xmlns="http://www.w3.org/2000/svg" viewBox="0 0 657.44 604.71">
  <defs>
    <style>
      .cls-1 {
        fill: #365e99;
      }

      .cls-2 {
        fill: #a3161f;
      }

      .cls-3 {
        fill: #516aa2;
      }
    </style>
  </defs>
  <g id="Capa_1-2" data-name="Capa 1">
    <g>
      <path class="cls-1" d="m402.59,383.96c.89-1.02,1.96-1.81,4.14-1.05,1.21,6.95-1.97,13.27-4.74,19.36-16.48,36.12-28.49,73.97-43.26,110.76-9.7,24.17-17.53,49.08-28.35,72.82.16,0,.29.01.37.01,3.42-.04,6.84-.04,10.25-.04s6.84,0,10.25.04c-.54,0,4.16.23,4.25.1-3.1,4.27-9.66,13.46-2.46,17.21.15.08.31.14.47.21,12.44-1.01,25.21-1.2,37.58-.35,3.55.24,7.04.85,10.5,1.65,11.88,0,23.76.01,35.64.02.22-.22.45-.43.67-.66,6.58-7.31,6.03-18.46,6.76-27.63.91-11.49,3.84-22.3,9.73-32.29,5.81-9.85,13.56-18.32,20.75-27.15,7.91-9.71,14.74-19.84,18.35-31.95,3.99-13.4,5.15-27.42,6.94-41.23,1.82-14.03,4.77-27.48,9.98-40.67,5.08-12.86,11.63-25.06,18.45-37.06,14.47-25.48,28.9-50.99,41.05-77.69,12.32-27.07,22.65-55.01,31.65-83.34,4.65-14.63,8.59-29.46,13.16-44.11,4.34-13.94,9.26-27.69,14.11-41.46,9.36-26.57,18.52-53.37,23.05-81.24-.02,0-.05,0-.07,0-5.32.11-10.65.54-15.97.55-28,.05-56-.06-84,.02-13.42.04-16.56,1.91-20.46,14.46-10,32.17-24.09,62.87-33.99,95.06-.39,1.27-.78,2.57-1.36,3.76-.98,2.03-1.54,4.78-4.46,4.69-2.45-.07-2.75-2.57-3.62-4.29-1.8-3.57-3.26-7.34-5.35-10.72-16.6-26.91-37.22-50.32-62-69.96-30.98-24.55-66.22-40.98-103.74-52.54C272.58,5.62,227.26-1.11,180.85.15c-11.48.31-13.06.9-16.62,11.76-7.39,22.48-14.58,45.02-21.74,67.58-4.13,13.02-8.31,26.04-11.96,39.2-2.19,7.9-.94,9.15,6.91,10.83,7.56,1.62,15.29.94,22.89,1.92,43.95,5.64,88.18,8.51,132.22,13.23,31.6,3.39,61.43,11.9,88.66,28.48,18.45,11.23,34.2,25.34,45.48,44.1,9.06,15.06,10.19,30.04.39,45.13-11.68,17.98-24.84,34.92-41.67,48.23-28.23,22.33-57.3,43.42-90.89,57.56-32.73,13.79-66.4,21.77-102.05,20.18-9.72-.43-12.99-3.73-13.2-13.68-.18-8.65-.19-17.3,1.17-25.93.83-5.24.88-10.62,1.06-15.94.12-3.44-2.11-4.58-5.22-4.49-2.79.08-5.18,1.14-7.25,2.95-16.82,14.67-34.3,28.53-51.82,42.35-24.85,19.59-49.09,39.98-73.81,59.74-11.96,9.56-24.47,18.42-36.68,27.67-8.48,6.42-8.88,10.14-1.47,17.71,4.41,4.51,9.7,8.19,14,12.8,27.29,29.24,56.87,56.19,84.83,84.75,1.38,1.41,3.08,2.56,4.79,3.56,7.73,4.54,10.6,3.25,12.05-5.66,1.71-10.52,3.26-21.07,4.67-31.64,1.17-8.77,5.65-14.39,13.99-17.75,12.44-5.01,25.57-7.47,38.27-11.4,54.41-16.86,105.93-40.34,153.45-71.72,25.5-16.84,50.86-34.35,71.29-57.7Z"/>
      <path class="cls-3" d="m372.03,604.69c-.58-.13-1.15-.27-1.73-.39-2.67.16-5.34.29-8.02.4,3.25,0,6.5,0,9.76,0Z"/>
      <path class="cls-2" d="m493.98,163.33s-.05.08-.08.12c-.8,1.56-1.68,3.1-2.62,4.6-.91,2.07-1.57,4.26-2.15,6.49"/>
      <path class="cls-2" d="m401.14,402.28c-16.48,36.12-28.49,73.97-43.26,110.76-10.3,25.65-18.48,52.13-30.37,77.17-3.53,7.44-2.27,10.34,6.05,11.66,8.85,1.4,17.76,2.84,26.79,2.84,26.67-.02,53.33,0,80,.01,4.34,0,8.62-.27,12.91-1.19,5.01-1.08,7.98-3.58,9.7-8.72,7.53-22.43,15.4-44.74,23.3-67.03,17.14-48.35,34.15-96.75,51.66-144.97,7.73-21.28,15.27-42.64,22.85-63.96,8.93-25.09,18.35-50.01,26.95-75.23,6.35-18.6,13.64-36.87,20.34-55.34,9.42-26,18.76-52.03,27.99-78.1,6.45-18.22,12.69-36.51,18.89-54.82,1.17-3.45,2.1-7.08,2.42-10.69.43-4.87-1.46-6.55-6.43-6.44-5.33.11-10.65.54-15.97.55-28,.05-56-.06-84,.02-13.42.04-16.56,1.91-20.46,14.46-10,32.17-24.09,62.87-33.99,95.06-.39,1.27-.78,2.57-1.36,3.76-.47.96-.84,2.09-1.41,3-.79,2.86-1.93,5.61-3.28,8.27,0,0,.02,0,.03,0"/>
    </g>
  </g>
</svg>